<?xml version="1.0" encoding="UTF-8"?>
<svg id="b" data-name="Layer 2" xmlns="http://www.w3.org/2000/svg" width="57" height="57" viewBox="0 0 57 57">
  <polygon points="57 12 57 45 54 45 54 51 51 51 51 54 45 54 45 57 12 57 12 54 6 54 6 51 3 51 3 45 0 45 0 12 3 12 3 6 6 6 6 3 12 3 12 0 45 0 45 3 51 3 51 6 54 6 54 12 57 12" fill="#ff875b" stroke-width="0"/>
  <polygon points="43.5 36.75 42 36.75 42 35.25 42 33.75 40.5 33.75 39 33.75 39 32.25 39 30.75 37.5 30.75 36 30.75 36 29.25 36 27.75 36 26.25 36 24.75 34.5 24.75 33 24.75 33 23.25 33 21.75 33 20.25 33 18.75 33 17.25 33 15.75 33 14.25 33 12.75 33 11.25 31.5 11.25 30 11.25 28.5 11.25 27 11.25 25.5 11.25 24 11.25 24 12.75 24 14.25 24 15.75 24 17.25 24 18.75 24 20.25 24 21.75 24 23.25 24 24.75 22.5 24.75 21 24.75 21 26.25 21 27.75 21 29.25 21 30.75 19.5 30.75 18 30.75 18 32.25 18 33.75 16.5 33.75 15 33.75 15 35.25 15 36.75 13.5 36.75 12 36.75 12 38.25 12 39.75 12 41.25 12 42.75 13.5 42.75 15 42.75 15 44.25 15 45.75 16.5 45.75 18 45.75 18 44.25 18 42.75 19.5 42.75 21 42.75 21 41.25 21 39.75 22.5 39.75 24 39.75 24 38.25 24 36.75 25.5 36.75 27 36.75 27 35.25 28.5 35.25 30 35.25 30 36.75 31.5 36.75 33 36.75 33 38.25 33 39.75 34.5 39.75 36 39.75 36 41.25 36 42.75 37.5 42.75 39 42.75 39 44.25 39 45.75 40.5 45.75 42 45.75 42 44.25 42 42.75 43.5 42.75 45 42.75 45 41.25 45 39.75 45 38.25 45 36.75 43.5 36.75" fill="#fff" stroke-width="0"/>
</svg>
