<?xml version="1.0" encoding="UTF-8"?>
<svg id="b" data-name="Layer 2" xmlns="http://www.w3.org/2000/svg" width="57" height="57" viewBox="0 0 57 57">
  <polygon points="57 12 57 45 54 45 54 51 51 51 51 54 45 54 45 57 12 57 12 54 6 54 6 51 3 51 3 45 0 45 0 12 3 12 3 6 6 6 6 3 12 3 12 0 45 0 45 3 51 3 51 6 54 6 54 12 57 12" fill="#202b31" stroke-width="0"/>
  <polygon points="43.5 30 43.5 27 43.5 24 40.5 24 37.5 24 37.5 21 34.5 21 34.5 18 31.5 18 31.5 15 34.5 15 37.5 15 37.5 12 34.5 12 34.5 9 31.5 9 28.5 9 25.5 9 22.5 9 22.5 12 19.5 12 19.5 15 22.5 15 25.5 15 25.5 18 22.5 18 22.5 21 19.5 21 19.5 24 16.5 24 13.5 24 13.5 27 13.5 30 10.5 30 10.5 33 10.5 36 10.5 39 10.5 42 10.5 45 13.5 45 13.5 48 16.5 48 19.5 48 22.5 48 22.5 45 22.5 42 22.5 39 19.5 39 19.5 36 16.5 36 16.5 33 19.5 33 22.5 33 22.5 36 25.5 36 25.5 39 25.5 42 28.5 42 31.5 42 31.5 39 31.5 36 34.5 36 34.5 33 37.5 33 40.5 33 40.5 36 37.5 36 37.5 39 34.5 39 34.5 42 34.5 45 34.5 48 37.5 48 40.5 48 43.5 48 43.5 45 46.5 45 46.5 42 46.5 39 46.5 36 46.5 33 46.5 30 43.5 30" fill="#f9b934" stroke-width="0"/>
</svg>
